<svg width="120" height="120" viewBox="0 0 120 120" fill="none" xmlns="http://www.w3.org/2000/svg">
<path d="M100 52.5V34C100 25.5992 100 21.3988 98.3651 18.1901C96.927 15.3677 94.6323 13.073 91.8099 11.6349C88.6012 10 84.4008 10 76 10H44C35.5992 10 31.3988 10 28.1901 11.6349C25.3677 13.073 23.073 15.3677 21.6349 18.1901C20 21.3988 20 25.5992 20 34V86C20 94.4008 20 98.6012 21.6349 101.81C23.073 104.632 25.3677 106.927 28.1901 108.365C31.3988 110 35.5992 110 44 110H57.5M110 110L102.5 102.5M107.5 90C107.5 99.665 99.665 107.5 90 107.5C80.335 107.5 72.5 99.665 72.5 90C72.5 80.335 80.335 72.5 90 72.5C99.665 72.5 107.5 80.335 107.5 90Z" stroke="#98A2B3" stroke-width="8" stroke-linecap="round" stroke-linejoin="round"/>
</svg>
